<svg id="Capa_1" data-name="Capa 1" xmlns="http://www.w3.org/2000/svg" viewBox="0 0 1880.56 512"><defs><style>.cls-1{fill:#514bbf;}.cls-2{fill:#64b6ec;}.cls-3{fill:#4b9fdb;}.cls-4{fill:#3188ca;}.cls-5{fill:#a1ddfb;}.cls-6{fill:#7dcfff;}.cls-7{fill:#fff;stroke:#fff;stroke-miterlimit:10;}.cls-8{fill:#7ccffe;}</style></defs><path class="cls-1" d="M450.35,422.61A255,255,0,0,0,512,256C512,114.61,397.39,0,256,0,129.54,0,24.51,91.7,3.74,212.23,4,212.87,72.29,422.61,450.35,422.61Z" transform="translate(0 0)"/><path class="cls-2" d="M296.6,203.09A232.42,232.42,0,0,1,336.32,72.77S77.72,98.56,1.69,285.42c0,0,0,0,0,.06s.53.8,1.32,1.91C16.23,306,143.67,515,421.07,451.66a257.46,257.46,0,0,0,29.28-29.05C360.66,390,296.6,304,296.6,203.09Z" transform="translate(0 0)"/><path class="cls-3" d="M299.36,167.09a232.1,232.1,0,0,1,37-94.32S77.72,98.56,1.69,285.42a.13.13,0,0,1,0,.06c.1.15.53.8,1.32,1.91,4.87,6.86,25.26,39.57,62.94,75,25.92-107.49,119.66-188.52,233.4-195.29Z" transform="translate(0 0)"/><path class="cls-3" d="M275.19,471.55C194.5,392.09,171.88,266.13,227.9,161.12A261.24,261.24,0,0,1,336.22,52.92S88.39,96.56,1.69,285.42A254.91,254.91,0,0,0,53.76,413c.55.4,80.71,58.7,221.43,58.6Z" transform="translate(0 0)"/><path class="cls-4" d="M216.1,186.35a265.11,265.11,0,0,1,11.8-25.23A261.21,261.21,0,0,1,336.23,52.92S88.39,96.56,1.69,285.42A254.91,254.91,0,0,0,53.76,413c.08.05,1.81,1.32,5.14,3.43C61.37,312.66,125.53,224.23,216.1,186.35Z" transform="translate(0 0)"/><path class="cls-5" d="M256.07,367.56a191.31,191.31,0,0,1-33.24-107.1S82.21,285.53,76.94,438.93L227.35,510.4A260.59,260.59,0,0,0,256,512a255,255,0,0,0,165.07-60.34,192.07,192.07,0,0,1-165-84.1Z" transform="translate(0 0)"/><path class="cls-6" d="M77,438.94a255.66,255.66,0,0,1,166-93.82,191,191,0,0,1-20.1-84.66S82.21,285.53,76.94,438.93Z" transform="translate(0 0)"/><path class="cls-6" d="M169.4,359.49a191.3,191.3,0,0,1,39.85-104.81S70.21,292.2,76.94,438.93A255.2,255.2,0,0,0,227.36,510.4,191.77,191.77,0,0,1,169.4,359.49Z" transform="translate(0 0)"/><path class="cls-2" d="M77,438.94a257,257,0,0,1,92.12-72.32c.07-2.37.17-4.74.33-7.13a191.3,191.3,0,0,1,39.85-104.81S70.21,292.2,76.94,438.93Z" transform="translate(0 0)"/><path class="cls-5" d="M463,54c-4,13.67-105,9-105,29s75,40,56,61-84-57-262,11C69.8,186.41,21.55,252.49,1.68,285.45a258.45,258.45,0,0,1,2.06-73.23C25.59,175.17,78.45,104.3,184,54c55.91-26.64,110.27-37.94,156-39.91C416,10.81,469,33.64,463,54Z" transform="translate(0 0)"/><path class="cls-5" d="M133.67,248.33C71.91,294.52,56.29,375.1,53.75,412.94a257.68,257.68,0,0,0,23.19,26c6.29-22.55,24.22-77.69,56.73-110.2,58.12-58.13,147.46-8.06,160-27.06C306.33,282.46,256,264.33,256,264.33s81.67-4,84.33-30-124.43-47.51-206.66,14Z" transform="translate(0 0)"/><path class="cls-6" d="M242.93,80.57C205.86,70.14,205,32,340,14.09c-45.68,2-100,13.27-155.95,39.91C78.45,104.3,25.59,175.17,3.74,212.22a258.45,258.45,0,0,0-2.06,73.23c19.87-33,68.12-99,150.32-130.45,0,0,128-64,90.93-74.43Z" transform="translate(0 0)"/><path class="cls-6" d="M206.28,215.22c-25.19,6.06-50.52,16.59-72.61,33.11-61.76,46.2-77.38,126.78-79.92,164.61a257.68,257.68,0,0,0,23.19,26c6.28-22.55,24.22-77.69,56.73-110.2a97.62,97.62,0,0,1,9.31-8.2h0s50-46.52,23-52.35-1.51-42.15,40.28-53Z" transform="translate(0 0)"/><path class="cls-7" d="M790.37,161.4h-75.9V355.8h-21V161.4h-75.9V142.8h172.8Z" transform="translate(0 0)"/><path class="cls-7" d="M886.37,358.8A75.91,75.91,0,0,1,830,334.65a82,82,0,0,1-16.35-25.95,84.33,84.33,0,0,1-5.85-31.5,82.52,82.52,0,0,1,5.85-31,78.54,78.54,0,0,1,41.1-42.9,76.23,76.23,0,0,1,87.15,17.55,82.4,82.4,0,0,1,21.6,56.1c0,1.61-.06,3.21-.15,4.8a16.33,16.33,0,0,1-.45,3.3H829.37a66,66,0,0,0,18.45,41.7,54.94,54.94,0,0,0,17.7,12.15A53.35,53.35,0,0,0,887,343.2a56.59,56.59,0,0,0,15.3-2.1,60.38,60.38,0,0,0,13.8-5.7,48.33,48.33,0,0,0,11.25-8.85A39.25,39.25,0,0,0,935,315l17.7,4.8a51.92,51.92,0,0,1-10.2,15.75,71.39,71.39,0,0,1-15.3,12.3A74.88,74.88,0,0,1,908,356,82.2,82.2,0,0,1,886.37,358.8ZM944,269.4a63.12,63.12,0,0,0-5.85-22.95,62.47,62.47,0,0,0-12.6-17.85,56.7,56.7,0,0,0-78.9,0,57.33,57.33,0,0,0-12.3,18,68,68,0,0,0-5.55,22.8Z" transform="translate(0 0)"/><path class="cls-7" d="M992,199.5l46.8,61.2,2.41,4.5,2.7-4.5,46.5-61.2h21.89l-59.69,78.6,59.69,77.7h-21.89l-46.5-60.9-2.7-4.2-2.41,4.2-46.5,60.9H970.07l59.69-77.7-59.69-78.6Z" transform="translate(0 0)"/><path class="cls-7" d="M1213.67,348.3c-1.21.6-3,1.41-5.25,2.4s-5,2-8,3a88.76,88.76,0,0,1-10.2,2.7,58.14,58.14,0,0,1-12,1.2,43.5,43.5,0,0,1-12.59-1.8,29.14,29.14,0,0,1-10.5-5.55,27.25,27.25,0,0,1-7.21-9.45,30.59,30.59,0,0,1-2.7-13.2V215.7h-21.59V199.5h21.59V146.7h20.41v52.8h36v16.2h-36V321.9q.58,8.72,6,12.75a20.85,20.85,0,0,0,12.9,4.05,38.21,38.21,0,0,0,15.3-2.85,64.19,64.19,0,0,0,8.39-4.05Z" transform="translate(0 0)"/><path class="cls-8" d="M1242.76,355.8v-213h72q25.5,0,44.7,8.4a90.29,90.29,0,0,1,32,22.8,94.27,94.27,0,0,1,19,33.75,132.48,132.48,0,0,1,6.3,41.25q0,24.3-7.2,43.95a96.5,96.5,0,0,1-20.4,33.6,90,90,0,0,1-32.1,21.6q-18.9,7.65-42.3,7.65Zm153-106.8a110,110,0,0,0-5.4-35.25A79.76,79.76,0,0,0,1374.61,186a70.66,70.66,0,0,0-25.35-18.15q-15-6.45-34.5-6.45h-51.3V337.2h51.3q19.8,0,35-6.75a71,71,0,0,0,25.35-18.6,80.57,80.57,0,0,0,15.45-27.9A111.79,111.79,0,0,0,1395.76,249Z" transform="translate(0 0)"/><path class="cls-8" d="M1531.06,217.5q-20.7.62-36,11.4t-21.6,29.7v97.2h-20.4V199.5h19.2V237a82.19,82.19,0,0,1,21.3-27.45q13.2-11,28.5-11h5.1a21.51,21.51,0,0,1,3.9.3Z" transform="translate(0 0)"/><path class="cls-8" d="M1618.66,358.8a75.14,75.14,0,0,1-31.35-6.45,76.06,76.06,0,0,1-24.6-17.55,79.53,79.53,0,0,1-16-25.8,84.68,84.68,0,0,1-5.7-30.9,83.63,83.63,0,0,1,5.85-31.2,81.87,81.87,0,0,1,16.2-25.8,78.33,78.33,0,0,1,24.6-17.7,76.34,76.34,0,0,1,62.1,0,78.33,78.33,0,0,1,24.6,17.7,81.87,81.87,0,0,1,16.2,25.8,83.63,83.63,0,0,1,5.85,31.2,82.76,82.76,0,0,1-5.85,30.9,81.64,81.64,0,0,1-16.2,25.8,76.06,76.06,0,0,1-24.6,17.55A74.41,74.41,0,0,1,1618.66,358.8ZM1562,278.4a67.19,67.19,0,0,0,4.35,24.45,64,64,0,0,0,12,19.8,54.79,54.79,0,0,0,18,13.35,51.63,51.63,0,0,0,22,4.8,50.46,50.46,0,0,0,22.05-4.95,58.56,58.56,0,0,0,18.15-13.5,64.21,64.21,0,0,0,12.3-20,69.08,69.08,0,0,0,0-49,64,64,0,0,0-12.3-20.1,59.13,59.13,0,0,0-18-13.5,49.5,49.5,0,0,0-21.9-4.95,50.46,50.46,0,0,0-22.05,4.95,55.81,55.81,0,0,0-18,13.65,68,68,0,0,0-16.65,45Z" transform="translate(0 0)"/><path class="cls-8" d="M1809.76,358.8q-19.8,0-35.1-10.05a79.25,79.25,0,0,1-24.6-25.35v96.3h-20.4V199.5H1748v30.3a76,76,0,0,1,24.9-23.85,63.71,63.71,0,0,1,33.3-9.15,66.44,66.44,0,0,1,29.85,6.75,75.79,75.79,0,0,1,23.55,18A83.86,83.86,0,0,1,1875,247.5a85.14,85.14,0,0,1,5.55,30.3,94.47,94.47,0,0,1-5.1,31.2,79.69,79.69,0,0,1-14.55,25.8,69.83,69.83,0,0,1-22.5,17.55A63.79,63.79,0,0,1,1809.76,358.8Zm-5.7-18a48,48,0,0,0,22.8-5.4,57.9,57.9,0,0,0,17.55-14.25,63.83,63.83,0,0,0,11.25-20.1,70.75,70.75,0,0,0,3.9-23.25,64.81,64.81,0,0,0-4.5-24,66.37,66.37,0,0,0-12.3-20.1,58.78,58.78,0,0,0-18.45-13.8,52.45,52.45,0,0,0-23-5.1,46,46,0,0,0-16.2,3.15,71.48,71.48,0,0,0-15.9,8.4,55.27,55.27,0,0,0-12.75,12.3,33,33,0,0,0-6.45,14.85v48a71.1,71.1,0,0,0,9.15,15.6,64.28,64.28,0,0,0,12.6,12.45,58.94,58.94,0,0,0,15.3,8.25A49.19,49.19,0,0,0,1804.06,340.8Z" transform="translate(0 0)"/></svg>